<svg xmlns="http://www.w3.org/2000/svg" data-name="Layer 1" width="786.81995" height="572.25773" viewBox="0 0 786.81995 572.25773" xmlns:xlink="http://www.w3.org/1999/xlink"><circle cx="458.32136" cy="74.18162" r="26.70075" fill="#f2f2f2"/><path d="M872.03753,661.02307c39.6877-30.22889,58.64352-81.02546,46.77635-129.48234q-.44231-1.806-.9647-3.60132c-9.96738-36.03768-36.03867-65.66879-70.41139-79.46089-34.37288-13.7921-74.00171-10.8143-103.07422,12.06731-29.95606,23.59851-42.76465,63.88373-32.05567,100.73524,10.70881,36.85135,45.18906,66.35165,82.66,67.49833,18.54587.56767,38.93849-4.95115,49.11135-21.46452,11.77246-19.1131-1.21152-45.961-22.69613-52.6933-21.48461-6.73229-46.48218,4.63449-57.34162,24.08262-10.85959,19.44813-8.82583,44.86249,4.40862,62.88963" transform="translate(-206.59003 -163.87114)" fill="#f2f2f2"/><path d="M815.016,219.19108c-.87006-.58-1.75-1.13-2.62006-1.69a380.24008,380.24008,0,0,0-80.31-38.93l-6.54,90.22h-41.46v-103.39c-2.61.01-5.22.05-7.83.14-88.88,2.96-170.59,40.48-233.95,101.63h-127.55v2h127.19c-2.8,2.71-5.57,5.45-8.29,8.25-44.98,46.25-76.79,104.41-88.43,168.75h-30.47v2h30.02c-.17,1.28-.34,2.56-.5,3.84-2.47,19.71-3.73,39.96-3.73,60.47,0,20.51,1.26,40.76,3.73,60.47.16,1.28.33,2.56.5,3.84h-30.02v2h30.47c11.64,64.34,43.45,122.5,88.43,168.75,2.72,2.8,5.49,5.54,8.29,8.25h-127.19v2h127.55c63.36,61.15,145.07,98.67,233.95,101.63,2.61.09,5.22.13,7.83.14v-103.39h41.46l6.54,90.22a380.24008,380.24008,0,0,0,80.31-38.93c.87006-.56,1.75-1.11,2.62006-1.69,71.74-47.05,124.89-122.49,143.05-212.31h37.53v-2h-37.07c.17-1.28.34-2.56.5-3.84,2.47-19.71,3.73-39.96,3.73-60.47,0-20.51-1.26-40.76-3.73-60.47-.16-1.28-.33-2.56-.5-3.84h37.07v-2h-37.53c-18.16-89.82-71.31-165.26-143.05-212.31Zm-89.33,50.13,5.95-82.09a378.35764,378.35764,0,0,1,66.92,34.61c-1.52,4.06-3.33,8.91-5.39,14.39-2.6,6.94-5.56,14.85-8.68,23.09h-58.8Zm-122.62,336.88c-2.06,0-4.11-.04-6.16-.13v-101.3h-41.46l-6.44,88.99c-2.42-.72-4.82-1.47-7.21-2.27-2.56-.85-5.1-1.74-7.62-2.66l6.85-94.59a30.9999,30.9999,0,0,1,30.69-28.47h25.19c16.68,0,30.21,13.53,30.21,30.21v110.22Zm0-223.52v-110.22c0-16.68-13.53-30.21-30.21-30.21h-25.19a30.9999,30.9999,0,0,0-30.69,28.47l-6.85,94.59c2.52-.92,5.06-1.81,7.62-2.66,2.39-.8,4.79-1.55,7.21-2.27l6.44,88.99h41.46v-101.3c2.05-.09,4.1-.13,6.16-.13,2.06,0,4.11.04,6.16.13v101.3h41.46l6.44-88.99c2.42.72,4.82,1.47,7.21,2.27,2.56.85,5.1,1.74,7.62,2.66l-6.85-94.59a30.9999,30.9999,0,0,0-30.69-28.47h-25.19c-16.68,0-30.21,13.53-30.21,30.21v110.22c-2.05.09-4.1.13-6.16.13Zm12.32,223.52v-110.22c0-16.68,13.53-30.21,30.21-30.21h25.19a30.9999,30.9999,0,0,1,30.69,28.47l6.85,94.59c-2.52.92-5.06,1.81-7.62,2.66-2.39.8-4.79,1.55-7.21,2.27l-6.44-88.99h-41.46v101.3c-2.05.09-4.1.13-6.16.13Zm122.62-336.88h-58.8c-3.12-8.24-6.08-16.15-8.68-23.09-2.06-5.48-3.87-10.33-5.39-14.39a378.35764,378.35764,0,0,1,66.92-34.61l5.95,82.09Zm0,2v103.39h-41.46l-6.54-90.22c-2.79.64-5.56,1.33-8.31,2.07-2.42.65-4.82,1.35-7.2,2.08l6.85,94.59a30.99776,30.99776,0,0,0,30.69,28.48h25.19c16.68,0,30.21-13.53,30.21-30.21v-110.18h.27c2.79,0,5.57.1,8.33.29l-6.44,88.99h41.46v-103.39c2.61-.01,5.22-.05,7.83-.14,2.61.09,5.22.13,7.83.14v103.39h41.46l-6.44-88.99c2.76-.19,5.54-.29,8.33-.29h.27v110.18c0,16.68,13.53,30.21,30.21,30.21h25.19a30.99776,30.99776,0,0,0,30.69-28.48l6.85-94.59c-2.38-.73-4.78-1.43-7.2-2.08-2.75-.74-5.52-1.43-8.31-2.07l-6.54,90.22h-41.46v-103.39h58.8c-3.12,8.24-6.08,16.15-8.68,23.09-17.56,46.89-30.21,104.25-30.21,166.91s12.65,120.02,30.21,166.91c2.6,6.94,5.56,14.85,8.68,23.09h-58.8v-103.39h41.46l6.54,90.22c2.79-.64,5.56-1.33,8.31-2.07,2.42-.65,4.82-1.35,7.2-2.08l-6.85-94.59a30.99776,30.99776,0,0,0-30.69-28.48h-25.19c-16.68,0-30.21,13.53-30.21,30.21v110.18h-.27c-2.79,0-5.57-.1-8.33-.29l6.44-88.99h-41.46v103.39c-2.61.01-5.22.05-7.83.14-2.61-.09-5.22-.13-7.83-.14v-103.39h-41.46l6.44,88.99c-2.76.19-5.54.29-8.33.29h-.27v-110.18c0-16.68-13.53-30.21-30.21-30.21h-25.19a30.99776,30.99776,0,0,0-30.69,28.48l-6.85,94.59c2.38.73,4.78,1.43,7.2,2.08,2.75.74,5.52,1.43,8.31,2.07l6.54-90.22h41.46v103.39h-58.8c3.12-8.24,6.08-16.15,8.68-23.09,17.56-46.89,30.21-104.25,30.21-166.91s-12.65-120.02-30.21-166.91c-2.6-6.94-5.56-14.85-8.68-23.09Zm-122.62,334.88h58.8c3.12,8.24,6.08,16.15,8.68,23.09,2.06,5.48,3.87,10.33,5.39,14.39a378.35764,378.35764,0,0,1-66.92,34.61l-5.95-82.09Zm245.24,0-5.95,82.09a378.35764,378.35764,0,0,1-66.92-34.61c1.52-4.06,3.33-8.91,5.39-14.39,2.6-6.94,5.56-14.85,8.68-23.09h58.8Z" transform="translate(-206.59003 -163.87114)" fill="#3f3d56"/><path d="M815.34175,242.3335c-1.91-.59-3.83-1.13995-5.76-1.68a378.40744,378.40744,0,0,0-78.46-14.95l-7.87,108.71h-39.45l-7.64-105.36c-1.09.01-2.17.03-3.25.05-90.88,2.53-176.64,43.89-241.08,110.84-3.94,4.09-7.82,8.25-11.65,12.47-1.39,1.54-2.77,3.08-4.15,4.63q-9.68994,10.92-18.46,22.56-4.06506,5.4-7.97,10.93c-24.76,35.09-43.58,74.57-54.14,116.98-.28.12-.56.23-.84.35v-2.3c.28-.12.56-.23.84-.35,10.56-42.41,29.38-81.89,54.14-116.98q3.9-5.52,7.97-10.93,8.775-11.64,18.46-22.56c1.38-1.55,2.76-3.09,4.15-4.63,3.83-4.22,7.71-8.38,11.65-12.47,64.44-66.95,150.2-108.31,241.08-110.84,1.08-.02,2.16-.04,3.25-.05l7.64,105.36h39.45l7.87-108.71a378.40744,378.40744,0,0,1,78.46,14.95c1.93.54,3.85,1.09,5.76,1.68,74.36,23.07,137.65,73.75,179.19,139.68q4.30506,6.8,8.24,13.79,7.62,13.5,13.98,27.6c1.14,2.51,2.25,5.05,3.33,7.6q4.365,10.32,8.09,20.91a.0098.0098,0,0,1,.01.02c.94,2.65,1.85,5.31,2.73,7.98q2.925,8.9,5.34,17.97c.57,2.17,1.13,4.35,1.65,6.54.24.97.47,1.94.7,2.91.77,3.21,1.5,6.43,2.18,9.66.1.47.2.94.29,1.41v2.3c-.09-.47-.19-.94-.29-1.41-.68-3.23-1.41-6.45-2.18-9.66-.23-.97-.46-1.94-.7-2.91-.52-2.19-1.08-4.37-1.65-6.54q-2.415-9.075-5.34-17.97c-.88-2.67-1.79-5.33-2.73-7.98a.0098.0098,0,0,0-.01-.02q-3.73494-10.59-8.09-20.91c-1.08-2.55-2.19-5.09-3.33-7.6q-6.36-14.1-13.98-27.6-3.93-6.99-8.24-13.79c-41.54-65.93-104.83-116.61-179.19-139.68Z" transform="translate(-206.59003 -163.87114)" fill="#3f3d56"/><path d="M433.4927,284.5571c-1.90332,0-3.8042-.0581-5.69629-.17529-10.71729-.66162-21.03809-3.71484-30.7793-9.09961l-.32275-.17871-14.6792-10.33349,4.13135-5.86914,14.61768,10.29053c8.65674,4.76416,17.77246,7.40771,27.17187,7.99463,24.02344,1.50488,47.0625-10.8247,60.77637-32.42578l.32324-.50635,4.92432,3.14844-.32324.50586c-14.95508,23.44092-40.42285,37.14551-66.13965,37.14551Z" transform="translate(-206.59003 -163.87114)" fill="#3f3d56"/><path d="M433.4927,284.5571a79.61308,79.61308,0,0,1-36.80054-9.45361l-.32275-.17871-14.6792-10.33349,4.13135-5.86914,14.61768,10.29053a72.7398,72.7398,0,0,0,33.05346,8.16992c24.02344,1.50488,47.0625-10.8247,60.77637-32.42578l.32324-.50635,4.92432,3.14844-.32324.50586c-14.95508,23.44092-40.42285,37.14551-66.13965,37.14551Z" transform="translate(-206.59003 -163.87114)" fill="#6c63ff"/><path d="M695.59,358.75958a10.05576,10.05576,0,0,1,15.32045-1.74251l31.32354-10.96078,8.41561,15.31047-43.89855,9.81831a10.11028,10.11028,0,0,1-11.16105-12.42549Z" transform="translate(-206.59003 -163.87114)" fill="#ffb8b8"/><polygon points="601.259 556.611 588.999 556.611 583.167 509.323 601.262 509.324 601.259 556.611" fill="#ffb8b8"/><path d="M580.24239,553.10789h23.64387a0,0,0,0,1,0,0v14.88687a0,0,0,0,1,0,0H565.35553a0,0,0,0,1,0,0v0A14.88686,14.88686,0,0,1,580.24239,553.10789Z" fill="#2f2e41"/><polygon points="648.259 556.611 635.999 556.611 630.167 509.323 648.262 509.324 648.259 556.611" fill="#ffb8b8"/><path d="M627.24239,553.10789h23.64387a0,0,0,0,1,0,0v14.88687a0,0,0,0,1,0,0H612.35553a0,0,0,0,1,0,0v0A14.88686,14.88686,0,0,1,627.24239,553.10789Z" fill="#2f2e41"/><path d="M827.52889,577.41364l-14.55474-3.79046a4.50578,4.50578,0,0,1-3.40305-5.05363l20.14623-103.24335a4.50574,4.50574,0,0,1,5.30584-3.63107l70.46525,13.65892a4.50574,4.50574,0,0,1,3.67849,5.28479l-25.8802,116.35405a4.50577,4.50577,0,0,1-5.21634,3.57632l-15.34893-3.18434a4.50576,4.50576,0,0,1-3.43278-4.72484l1.85426-40.00046a1.50192,1.50192,0,0,0-2.94438-.51349l-26.75911,37.302A4.505,4.505,0,0,1,827.52889,577.41364Z" transform="translate(-206.59003 -163.87114)" fill="#2f2e41"/><circle cx="635.08947" cy="255.86883" r="24.56103" fill="#ffb8b8"/><path d="M854.32947,452.87364,814.3022,440.8689l-16.2079-6.77772-16.2079,6.77772-40.02728,12.00474a4,4,0,0,0-2.7823,4.48692l26.19081,162.42718a4,4,0,0,0,3.9148,3.35047h57.2905a4,4,0,0,0,3.91481-3.35047l26.19081-162.42718A4,4,0,0,0,854.32947,452.87364Z" transform="translate(-206.59003 -163.87114)" fill="#6c63ff"/><path d="M830.22714,422.05963a17.03737,17.03737,0,0,1-19.41754-9.42235c-3.27364-7.17788-1.71367-15.59937-1.40756-23.45764s-1.4429-16.68894-8.56328-19.25223c-5.61075-2.02142-11.6148,1.33924-17.31464,3.20117-6.4593,2.11562-13.67984,2.11562-19.44177-1.34772a20.111,20.111,0,0,1-8.44546-21.34851c1.93132-7.95,9.29224-13.24335,16.93812-15.83992a46.36732,46.36732,0,0,1,56.06081,28.43529c3.73189,10.8142,3.32017,22.69063-.21632,33.49222a40.43,40.43,0,0,1-7.5647,13.42172" transform="translate(-206.59003 -163.87114)" fill="#2f2e41"/><path d="M796.58939,477.81829a10.05578,10.05578,0,0,1,12.42386-9.66417l27.0473-19.4698,13.54449,10.90909-37.49519,22.94323a10.11027,10.11027,0,0,1-15.52046-4.72835Z" transform="translate(-206.59003 -163.87114)" fill="#ffb8b8"/><path d="M835.0086,483.88a4.4482,4.4482,0,0,1-3.24353-1.39845l-9.0002-9.40546a4.50661,4.50661,0,0,1,.97615-6.921l21.32666-13.83722a4.48887,4.48887,0,0,1,4.39236-.52776,4.45451,4.45451,0,0,1,2.79332,3.45l3.44373,24.29132a4.46989,4.46989,0,0,1-2.84,4.85412,4.52576,4.52576,0,0,1-5.28517-1.49426l-9.94035-10.84053-1.8356,9.25049a4.466,4.466,0,0,1-1.5982,2.59524A4.49419,4.49419,0,0,1,835.0086,483.88Z" transform="translate(-206.59003 -163.87114)" fill="#6c63ff"/><path d="M992.41,736.12886h-381a1,1,0,0,1,0-2h381a1,1,0,0,1,0,2Z" transform="translate(-206.59003 -163.87114)" fill="#3f3d56"/></svg>
